<svg version="1.2" xmlns="http://www.w3.org/2000/svg" viewBox="0 0 672 672" width="672" height="672">
	<style>
		.s0 { opacity: 1;fill: #4e351a } 
		.s1 { fill: #e8b357 } 
	</style>
	<g id="Background">
		<path id="Path 0" class="s0" d="m391 20.52c-4.68 0.73-13 2.47-18.5 3.87-5.5 1.4-13.71 3.91-18.25 5.58-4.54 1.66-13.31 5.55-19.5 8.62-6.19 3.08-14.85 7.96-19.25 10.86-4.4 2.9-11.15 7.76-15 10.81l-7 5.53c-7.97-3.6-10.37-3.95-15-3.59-4.05 0.32-7.74 1.42-11.36 3.39-2.95 1.6-7.74 5.38-10.65 8.41-3.1 3.21-6.53 8.2-8.27 12-1.64 3.58-3.48 8.86-4.1 11.75-0.62 2.89-1.1 8.29-1.08 12l0.03 6.75c-8.97 4.12-16.63 6.93-22.82 8.9-6.19 1.98-23.96 7-39.5 11.15-15.54 4.15-32.97 8.91-38.75 10.59-5.78 1.68-15.45 4.88-21.5 7.11-6.05 2.22-14.83 5.81-19.5 7.97-4.67 2.15-13 6.6-18.5 9.88-5.5 3.28-14.02 9.44-18.93 13.68-4.92 4.25-12.03 11.54-15.8 16.22-4.17 5.15-9.02 12.83-12.33 19.5-3.19 6.44-6.45 14.93-7.86 20.5-1.33 5.22-2.79 13.52-3.25 18.43-0.76 8.2-1.14 9.34-4.67 14-2.11 2.79-5.54 8.45-7.63 12.57-2.08 4.13-4.97 11.21-6.41 15.75-1.44 4.54-3.12 12.41-3.72 17.5-0.61 5.09-0.81 11.95-0.44 15.25 0.37 3.3 1.14 8.02 1.72 10.5 0.59 2.48 2.54 7.65 4.34 11.5 2.23 4.77 5.3 9.04 9.63 13.38 3.49 3.51 9.05 7.8 12.35 9.53l6 3.14c1.16 10.42 2.52 16.26 3.76 19.7 1.24 3.44 3.83 8.93 5.75 12.2 1.92 3.27 6.71 9.34 10.64 13.5 4.52 4.78 10.02 9.26 15 12.22 4.32 2.57 11.22 5.81 15.35 7.2 4.13 1.39 11.78 3.28 17 4.2 6.87 1.2 12.68 1.52 21 1.13 6.32-0.29 16.22-1.5 22-2.69 5.78-1.19 14.32-3.64 19-5.45 4.68-1.81 12.32-5.2 17-7.54 4.68-2.34 14.35-7.76 21.5-12.06 7.15-4.29 15.93-8.8 19.5-10.02 4.31-1.47 9.87-2.37 16.5-2.68 7.55-0.36 12.94 0.06 22 1.69 6.6 1.19 18.98 3.95 27.5 6.13 10.13 2.59 15.92 4.56 16.72 5.69 0.67 0.95 2.56 4.88 4.19 8.73 1.63 3.85 3.68 9.7 4.55 13 0.87 3.3 2.07 10.5 2.65 16 0.59 5.5 0.78 13.82 0.43 18.5-0.36 4.68-1.31 13-2.12 18.5-0.81 5.5-3.24 19-5.4 30-2.16 11-4.42 23.15-5.03 27-0.6 3.85-1.1 13.3-1.1 21 0 11.78 0.41 15.58 2.58 24 1.42 5.5 3.72 12.48 5.11 15.5 1.4 3.02 5.41 9.77 8.91 15 3.5 5.23 8.42 11.64 10.94 14.25 2.51 2.61 5.36 4.76 6.32 4.76 0.96 0.01 5.35-2.74 9.75-6.12 4.4-3.37 14.98-10.75 23.5-16.39 8.52-5.64 22.02-14.07 30-18.72 7.98-4.65 27.1-15.34 42.5-23.75 15.4-8.41 35.2-19.35 44-24.31 8.8-4.97 21.18-12.18 27.5-16.04 6.33-3.86 15.55-9.72 20.5-13.02 4.95-3.3 14.17-9.93 20.5-14.74 6.33-4.81 15.55-12.44 20.5-16.97 4.95-4.53 12.26-11.88 16.25-16.34 3.99-4.46 9.68-11.49 12.65-15.61 2.96-4.13 7.49-11.32 10.05-16 2.57-4.68 6.28-12.55 8.24-17.5 1.97-4.95 4.6-13.05 5.84-18 1.24-4.95 2.75-13.61 3.36-19.25 0.61-5.64 1.39-15.99 1.74-23 0.34-7.03 0.1-19.93-0.55-28.75-0.64-8.8-2.01-21.85-3.04-29-1.03-7.15-3.08-18.4-4.55-25-1.46-6.6-4.48-17.63-6.7-24.5-2.21-6.88-6.26-17.9-8.98-24.5-2.73-6.6-5.16-12.45-5.41-13-0.25-0.55 2.14-2.84 5.32-5.1 3.18-2.25 8.93-6.8 12.78-10.11 3.85-3.32 9.73-9.35 13.08-13.41 3.34-4.06 8.04-10.31 10.44-13.88 2.4-3.57 6.72-11.45 9.61-17.5 2.88-6.05 6.4-15.05 7.82-20 1.41-4.95 3.22-12.82 4-17.5 0.78-4.68 1.72-12.78 2.08-18 0.36-5.32 0.15-14.12-0.49-20-0.63-5.78-1.98-14.1-3.01-18.5-1.03-4.4-2.89-10.7-4.14-14-1.25-3.3-3.87-7.72-5.83-9.82-2.65-2.85-5.22-4.33-10.06-5.78-3.58-1.07-11-2.36-16.5-2.87-6.08-0.55-14.12-0.55-20.5 0-5.77 0.51-15 2.06-20.5 3.45-5.5 1.39-13.15 3.72-17 5.18-3.85 1.45-9.7 3.98-13 5.61-3.3 1.64-9.6 5.32-14 8.18-4.4 2.86-10.59 7.53-13.75 10.38l-5.75 5.17c-14.34-9.71-22.77-14.65-28-17.24-5.23-2.59-14.23-6.25-20-8.14-5.77-1.88-14.4-4.25-19.17-5.27l-8.66-1.85c8.47-10.85 11.18-15.13 11.49-16.5 0.31-1.38 0.28-3.51-0.05-4.75-0.34-1.24-1.62-3.15-2.86-4.24-1.24-1.1-5.18-2.68-8.75-3.52-3.57-0.84-9.87-1.96-14-2.48-4.12-0.52-14.02-0.92-22-0.88-7.98 0.03-18.32 0.66-23 1.39z"/>
		<path id="Path 1" class="s1" d="m393 48.54c-4.68 0.74-12.55 2.53-17.5 3.97-4.95 1.45-12.82 4.22-17.5 6.15-4.68 1.93-11.88 5.35-16 7.6-4.13 2.25-10.88 6.33-15 9.08-4.13 2.74-10.88 7.79-15 11.21-4.13 3.43-12.24 11.12-18.03 17.09-5.79 5.97-14.56 15.76-19.5 21.75-6.47 7.86-10.22 11.52-13.47 13.13-2.48 1.23-8.78 3.83-14 5.78-5.22 1.95-14.68 5.11-21 7.03-6.32 1.92-22.07 6.26-35 9.65-12.93 3.39-29.35 7.91-36.5 10.04-7.15 2.14-17.72 5.65-23.5 7.81-5.78 2.16-15 6.09-20.5 8.74-5.5 2.64-14.05 7.53-19 10.86-4.95 3.33-11.92 8.81-15.5 12.17-3.58 3.37-8.37 8.55-10.67 11.51-2.29 2.97-6.09 8.99-8.45 13.39-2.35 4.4-5.09 11.15-6.08 15-0.99 3.85-2.09 11.05-2.45 16-0.53 7.41-1.16 9.88-3.56 14-1.6 2.75-4.82 7.7-7.16 11-2.34 3.3-5.28 8.7-6.53 12-1.24 3.3-2.95 8.7-3.79 12-0.84 3.3-1.55 9.38-1.59 13.5-0.04 4.84 0.62 9.61 1.86 13.43 1.18 3.65 3.46 7.64 5.92 10.39 2.2 2.45 6.7 5.8 10 7.44 3.3 1.64 9.15 3.68 13 4.53 4.91 1.09 12.36 1.55 25 1.54 15.65-0.01 19.69-0.37 31-2.72 7.15-1.49 18.63-4.57 25.5-6.85 6.88-2.28 18.8-7.32 26.5-11.2 7.7-3.88 17.82-9.67 22.5-12.86 4.68-3.19 10.75-7.37 13.5-9.29 3.02-2.1 6.19-3.49 8-3.48 1.65 0 4.24 0.92 5.75 2.04q2.75 2.03 3.34 5.78c0.33 2.06 0.11 4.87-0.47 6.25-0.59 1.37-4.57 5.48-8.85 9.12-4.27 3.64-12.05 9.43-17.27 12.88-5.22 3.45-15.8 9.35-23.5 13.13-7.7 3.77-19.4 8.61-26 10.76-6.6 2.14-16.5 4.82-22 5.95-5.5 1.13-14.95 2.58-21 3.23-6.61 0.71-16.29 0.93-24.25 0.56-10.26-0.49-13.25-0.35-13.27 0.62-0.01 0.69 0.59 3.05 1.33 5.25 0.75 2.2 3.17 6.7 5.38 10 2.21 3.3 5.66 7.46 7.66 9.25 2.01 1.79 6.69 4.78 10.4 6.65 3.71 1.86 9.45 4.12 12.75 5.02 3.3 0.89 10.5 1.88 16 2.2 6.86 0.4 12.99 0.1 19.5-0.97 5.22-0.86 14.22-3.19 20-5.18 5.78-1.99 14.55-5.77 19.5-8.39 4.95-2.62 13.72-7.73 19.5-11.35 5.78-3.63 13.43-7.97 17-9.65 3.57-1.68 9.65-3.73 13.5-4.55 3.85-0.82 12.06-1.5 18.25-1.51 6.19-0.01 15.64 0.68 21 1.54 5.36 0.85 18.07 3.57 28.25 6.04 10.18 2.47 22.55 5.4 27.5 6.52 4.95 1.11 13.73 2.66 19.5 3.43 5.77 0.78 17.48 1.42 26 1.43 9.06 0.01 19.45-0.62 25-1.5 5.23-0.83 14.45-3.06 20.5-4.96 6.05-1.89 15.05-5.54 20-8.1 4.95-2.56 11.48-6.34 14.5-8.39 3.02-2.06 8.57-6.39 12.32-9.63 4.58-3.96 7.16-5.57 7.84-4.9 0.68 0.67 0.5 2.63-0.57 6-0.86 2.75-3.68 8.6-6.25 13-3.09 5.3-7.73 11.05-13.75 17.02-5 4.97-12.91 11.57-17.59 14.69-4.68 3.11-13.23 7.92-19 10.68-5.77 2.77-15.23 6.57-21 8.46-5.77 1.89-14.77 4.36-20 5.49-5.23 1.13-13.1 2.52-17.5 3.09-4.4 0.57-8.1 1.16-8.21 1.3-0.12 0.15 0.21 2.97 0.74 6.27 0.53 3.3 0.96 12.3 0.97 20 0 7.7-0.67 19.18-1.5 25.5-0.83 6.32-3.08 20.05-5 30.5-1.93 10.45-4.17 23.5-4.99 29-0.83 5.5-1.5 13.94-1.5 18.75-0.01 4.81 0.66 12.24 1.49 16.5 0.84 4.38 3.24 11.34 5.5 16 2.2 4.54 4.34 8.24 4.75 8.22 0.41-0.01 7.73-4.68 16.25-10.36 8.52-5.69 23.15-14.74 32.5-20.12 9.35-5.39 28.93-16.31 43.5-24.28 14.57-7.96 32.13-17.62 39-21.45 6.88-3.83 19.02-11.06 27-16.06 7.98-5.01 19.23-12.46 25-16.56 5.77-4.1 14.1-10.46 18.5-14.13 4.4-3.68 11.99-10.92 16.87-16.1 4.89-5.17 11.93-13.68 15.66-18.91 3.73-5.23 9.28-14.23 12.32-20 3.05-5.77 7.13-15.23 9.06-21 1.94-5.77 4.18-14.1 4.99-18.5 0.81-4.4 1.74-10.02 2.08-12.5 0.33-2.48 0.6-13.05 0.58-23.5-0.01-10.45-0.52-23.5-1.12-29-0.6-5.5-1.97-14.73-3.04-20.5-1.07-5.77-3.52-16.46-5.43-23.75-1.91-7.29-5.1-17.64-7.09-23-1.99-5.36-7.17-17.18-11.52-26.25-4.35-9.07-7.9-17.4-7.9-18.5 0-1.1 0.58-2.76 1.27-3.69 0.7-0.92 4.64-3.41 8.77-5.53 4.12-2.11 10.18-5.63 13.45-7.81 3.27-2.18 9.54-7.35 13.93-11.47 4.38-4.13 10.64-11.1 13.9-15.5 3.27-4.4 8.37-12.95 11.35-19 3.14-6.39 6.41-14.98 7.8-20.5 1.32-5.22 2.9-14 3.5-19.5 0.78-7.04 0.81-12.89 0.09-19.75-0.56-5.36-1.69-12.79-2.52-16.5-0.82-3.71-2.13-7.65-2.92-8.75-1.27-1.79-2.8-2.04-14.25-2.36-9.21-0.26-15.37 0.12-21.83 1.35-4.95 0.93-12.15 2.84-16 4.23-3.85 1.39-10.15 4.11-14 6.04-3.85 1.93-9.7 5.33-13 7.56-3.3 2.22-9.1 7-12.9 10.61-3.79 3.61-9.57 10.17-12.84 14.57-3.26 4.4-7.73 11.6-9.92 16-2.2 4.4-4.52 8.33-5.16 8.73-0.65 0.41-1.97 0.75-2.93 0.75-0.96 0.01-3.79-1.89-6.29-4.23-3.12-2.92-4.74-5.35-5.16-7.75-0.34-1.93-0.14-5.75 0.44-8.5 0.58-2.75 2.33-7.59 3.9-10.76 1.58-3.17 2.63-5.93 2.36-6.14-0.27-0.2-4.32-2.95-9-6.1-4.68-3.16-12.55-7.67-17.5-10.02-4.95-2.35-12.6-5.41-17-6.8-4.4-1.38-12.73-3.44-18.5-4.57-5.77-1.13-15.23-2.48-21-2.99-8.4-0.75-10.75-1.3-11.77-2.78-0.69-1.01-1.26-2.97-1.26-4.34 0-1.38 2.15-6.87 4.77-12.21l4.76-9.72c-16.27 0.1-24.82 0.73-29.5 1.47z"/>
		<path id="Path 2" class="s0" d="m605 100.58c-3.58 0.79-10.55 3.4-15.5 5.8-4.95 2.41-12.38 7.05-16.5 10.31-4.13 3.27-9.48 8.16-11.9 10.87-2.42 2.72-6.59 8.32-9.26 12.44-2.67 4.13-6.25 10.88-7.96 15-1.71 4.13-3.92 10.88-4.92 15-1 4.13-2.13 10.88-2.51 15-0.57 6.2-0.41 7.8 0.93 9.25 1.02 1.1 3.1 1.75 5.62 1.75 2.2 0 6.59-0.73 9.75-1.63 3.16-0.9 9.13-3.33 13.25-5.41 4.13-2.08 9.6-5.29 12.16-7.12 2.57-1.84 7.69-6.27 11.39-9.84 3.7-3.57 8.62-9.2 10.93-12.5 2.31-3.3 5.58-8.47 7.26-11.5 1.67-3.03 4.25-8.87 5.72-13 1.47-4.12 3.31-11.78 4.1-17 0.79-5.22 1.43-10.74 1.43-12.25 0.01-1.51-0.89-3.65-1.99-4.75-1.1-1.1-2.79-1.96-3.75-1.92-0.96 0.04-4.67 0.72-8.25 1.5zm-255 65.6c-3.57 0.52-9.43 2.16-13 3.65-3.57 1.49-9.43 4.78-13 7.31-3.57 2.53-9.54 7.81-13.25 11.73-3.71 3.92-7.15 8.14-7.63 9.38-0.55 1.39-0.49 3.01 0.16 4.25 0.97 1.87 1.65 1.95 10.38 1.25l9.34-0.75c-0.01 6.59 0.7 11.2 1.56 14.5 0.87 3.3 2.63 8.25 3.92 11 1.28 2.75 4.51 7.21 7.18 9.92 2.66 2.71 7.32 6.08 10.34 7.5 4.56 2.14 6.86 2.56 13.5 2.48 6.2-0.07 9.13-0.62 13-2.46 2.75-1.3 7.36-4.74 10.25-7.65 3.09-3.11 6.44-7.87 8.13-11.54 1.58-3.44 3.38-8.61 4-11.5 0.62-2.89 1.12-6.82 1.12-8.75v-3.5c15.82 0.28 18.46-0.11 22.5-1.89 2.75-1.22 6.69-3.87 8.77-5.91 2.16-2.13 3.75-4.66 3.75-5.95-0.01-1.24-0.13-2.26-0.27-2.26-0.14-0.01-4.3-0.86-9.25-1.89-5.7-1.18-14.14-4.15-23-8.07-7.7-3.41-16.59-7.06-19.75-8.11-3.16-1.06-8.79-2.36-12.5-2.9-3.71-0.54-7.43-0.93-8.25-0.88-0.82 0.06-4.43 0.53-8 1.04zm-234.78 65.62c-1.26 0.3-4.63 1.19-7.5 1.99-2.87 0.8-7.69 2.85-10.72 4.56-3.03 1.71-8.65 6.09-12.5 9.73-3.85 3.65-8.88 9.51-11.18 13.03-2.3 3.51-4.88 8.3-5.75 10.64-1.27 3.43-1.33 4.55-0.32 5.79 0.69 0.85 1.47 1.53 1.75 1.51 0.28-0.03 4.33-2.32 9-5.09 4.67-2.77 11.42-6.41 15-8.09 3.58-1.67 9.65-4.11 13.5-5.42 3.85-1.3 12.4-3.3 19-4.45 9.18-1.59 12.54-2.6 14.29-4.29 1.25-1.21 2.49-3 2.75-3.96 0.25-0.96-0.35-3.66-1.35-6-1.1-2.6-3.14-5.08-5.25-6.39-1.89-1.18-5.8-2.64-8.69-3.25-2.89-0.61-6.26-1.05-7.5-0.97-1.24 0.07-3.28 0.37-4.53 0.66z"/>
	</g>
</svg>